<svg width="24" height="24" xmlns="http://www.w3.org/2000/svg"><path d="M7.832 12.35C7.096 11.478 6.5 9.85 6.5 8.71V7a4 4 0 018 0v1.71c0 1.14-.6 2.773-1.332 3.642l-.361.428c-.59.699-.406 1.588.419 1.99l5.66 2.762c.615.3 1.114 1.093 1.114 1.783v.687a1 1 0 01-1.001.998H2a.998.998 0 01-1-.998v-.687c0-.685.498-1.483 1.114-1.784l5.66-2.762c.821-.4 1.012-1.288.42-1.99l-.362-.429zM2.2 19.8h16.6v-.485c0-.229-.235-.605-.44-.705l-5.66-2.76c-1.527-.745-1.904-2.546-.81-3.843l.36-.428c.552-.654 1.05-2.014 1.05-2.868V7c0-1.545-1.254-2.8-2.8-2.8A2.803 2.803 0 007.7 7v1.71c0 .856.496 2.21 1.05 2.866l.36.429c1.097 1.299.715 3.099-.81 3.843L2.64 18.61c-.203.099-.44.479-.44.705v.485zm16.7-8.9V8h1.2v2.9H23v1.2h-2.9V15h-1.2v-2.9H16v-1.2h2.9z" fill-rule="evenodd" fill-opacity=".9"/></svg>