<svg width="24" height="24" xmlns="http://www.w3.org/2000/svg"><path d="M6.774 6.4l.812 13.648a.8.8 0 00.798.752h7.232a.8.8 0 00.798-.752L17.226 6.4h1.203l-.817 13.719A2 2 0 0115.616 22H8.384a2 2 0 01-1.996-1.881L5.571 6.4h1.203zM9.5 9h1.2l.5 9H10l-.5-9zm3.8 0h1.2l-.5 9h-1.2l.5-9zM4.459 2.353l15.757 2.778a.5.5 0 01.406.58L20.5 6.4 3.758 3.448l.122-.69a.5.5 0 01.579-.405zm6.29-1.125l3.94.695a.5.5 0 01.406.58l-.122.689-4.924-.869.122-.689a.5.5 0 01.579-.406z" fill-rule="evenodd" fill-opacity=".9"/></svg>