<svg width="24" height="24" xmlns="http://www.w3.org/2000/svg"><path d="M2.2 19.8h16.6v-.485c0-.229-.235-.605-.44-.705l-5.66-2.76c-1.527-.745-1.904-2.546-.81-3.843l.36-.428c.552-.654 1.05-2.014 1.05-2.868V7c0-1.545-1.254-2.8-2.8-2.8A2.803 2.803 0 007.7 7v1.71c0 .856.496 2.21 1.05 2.866l.36.429c1.097 1.299.715 3.099-.81 3.843L2.64 18.61c-.203.099-.44.479-.44.705v.485zM13.496 4.35A3.38 3.38 0 0115 4c1.86 0 3.368 1.494 3.368 3.334v1.424c0 .95-.504 2.311-1.121 3.035l-.305.357c-.496.582-.341 1.324.353 1.659l4.767 2.3c.518.25.938.912.938 1.487v.572a.84.84 0 01-.843.832h-2.19c.022.106.033.212.033.315v.687a1 1 0 01-1.001.998H2a.998.998 0 01-1-.998v-.687c0-.685.498-1.483 1.114-1.784l5.66-2.762c.821-.4 1.012-1.288.42-1.99l-.362-.429C7.096 11.478 6.5 9.85 6.5 8.71V7c0-2.21 1.795-4 4-4a3.99 3.99 0 012.996 1.35zm.657 1.02A3.98 3.98 0 0114.5 7v1.71c0 1.14-.6 2.773-1.332 3.642l-.361.428c-.59.699-.406 1.588.419 1.99l5.66 2.762c.137.067.27.158.39.268H21.8v-.204c0-.111-.154-.354-.26-.406l-4.766-2.3c-1.401-.677-1.752-2.336-.745-3.518l.305-.358c.433-.508.834-1.593.834-2.256V7.334C17.168 6.159 16.2 5.2 15 5.2c-.3 0-.587.06-.847.17z" fill-rule="evenodd" fill-opacity=".9"/></svg>