<svg width="24" height="24" xmlns="http://www.w3.org/2000/svg"><path d="M12 22C6.477 22 2 17.523 2 12S6.477 2 12 2s10 4.477 10 10-4.477 10-10 10zm0-1.2a8.8 8.8 0 100-17.6 8.8 8.8 0 000 17.6zM9 9.707C9.077 8.2 10.081 7 12.042 7 13.8 7 15 8.088 15 9.526c0 1.095-.565 1.87-1.458 2.407-.886.523-1.137.914-1.137 1.646v.454h-1.221v-.642c-.007-.921.44-1.55 1.395-2.121.81-.496 1.123-.935 1.123-1.682 0-.865-.67-1.5-1.709-1.5-1.053 0-1.723.621-1.8 1.619H9zm2.798 7.507a.786.786 0 01-.796-.795c0-.454.35-.796.796-.796.453 0 .795.342.795.796a.782.782 0 01-.795.795z" fill-rule="evenodd" fill-opacity=".9"/></svg>