<svg width="24" height="24" xmlns="http://www.w3.org/2000/svg"><path d="M11 19h2v2h-2v-2zm8-8h2v2h-2v-2zm-8 4h2v2h-2v-2zm4-4h2v2h-2v-2zM4 3h8a1 1 0 011 1v8a1 1 0 01-1 1H4a1 1 0 01-1-1V4a1 1 0 011-1zm.2 1.2v7.6h7.6V4.2H4.2zM7 7h2v2H7V7zm9-4h4a1 1 0 011 1v4a1 1 0 01-1 1h-4a1 1 0 01-1-1V4a1 1 0 011-1zm.2 4.8h3.6V4.2h-3.6v3.6zM16 15h4a1 1 0 011 1v4a1 1 0 01-1 1h-4a1 1 0 01-1-1v-4a1 1 0 011-1zm.2 4.8h3.6v-3.6h-3.6v3.6zM4 15h4a1 1 0 011 1v4a1 1 0 01-1 1H4a1 1 0 01-1-1v-4a1 1 0 011-1zm.2 4.8h3.6v-3.6H4.2v3.6z" fill-rule="evenodd" fill-opacity=".9"/></svg>