<svg width="24" height="24" xmlns="http://www.w3.org/2000/svg"><path d="M12 5.414L7.914 9.5H3v5h4.914L12 18.586V5.414zM7.5 8.5l3.793-3.793A1 1 0 0113 5.414v13.172a1 1 0 01-1.707.707L7.5 15.5H3a1 1 0 01-1-1v-5a1 1 0 011-1h4.5zm9.808 8.308A6.774 6.774 0 0019.3 12c0-1.83-.724-3.54-1.992-4.808l.849-.849A7.975 7.975 0 0120.5 12c0 2.21-.895 4.21-2.343 5.657l-.849-.849zm-1.98-1.98A3.983 3.983 0 0016.5 12a3.983 3.983 0 00-1.172-2.828l.849-.849A5.184 5.184 0 0117.7 12a5.184 5.184 0 01-1.523 3.677l-.849-.849z" fill-rule="evenodd" fill-opacity=".9"/></svg>