<svg width="24" height="24" xmlns="http://www.w3.org/2000/svg"><path d="M15.111 4.002c1.809.058 3.257 1.529 3.257 3.332v1.424c0 .95-.504 2.311-1.121 3.035l-.305.357c-.496.582-.341 1.324.353 1.659l4.767 2.3c.518.25.938.912.938 1.487v.572a.84.84 0 01-.843.832h-.674c-.122-1.16-.902-2.31-1.94-2.817l-5.416-2.642.188-.222C15.276 12.179 16 10.202 16 8.71V7a5.473 5.473 0 00-.889-2.998zm-7.28 8.348C7.097 11.478 6.5 9.85 6.5 8.71V7a4 4 0 018 0v1.71c0 1.14-.6 2.773-1.332 3.642l-.361.428c-.59.699-.406 1.588.419 1.99l5.66 2.762c.615.3 1.114 1.093 1.114 1.783v.687a1 1 0 01-1.001.998H2a.998.998 0 01-1-.998v-.687c0-.685.498-1.483 1.114-1.784l5.66-2.762c.821-.4 1.012-1.288.42-1.99l-.362-.429z" fill-rule="evenodd" fill-opacity=".9"/></svg>