<svg width="24" height="24" xmlns="http://www.w3.org/2000/svg"><path d="M18 4.309L8 6.5v12.7c0 .937-.627 1.85-1.47 2.243-.157.073-1.148.295-1.277.32-1.243.25-2.198-.814-2.25-1.89-.053-1.077.653-1.974 1.472-2.139l1.265-.317c.447-.112.76-.514.76-.975V5.96a1 1 0 01.786-.976l11.607-2.542a.5.5 0 01.607.488v13.61c0 .937-.633 1.85-1.483 2.243-.158.073-1.158.295-1.288.32-1.253.25-2.217-.814-2.27-1.89-.053-1.077.66-1.974 1.485-2.139l1.292-.32c.449-.11.764-.513.764-.975v-9.47z" fill-rule="evenodd" fill-opacity=".9"/></svg>