<svg width="24" height="24" xmlns="http://www.w3.org/2000/svg"><path d="M17 5v2h2V5h-2zm-6 14h2v2h-2v-2zm8-8h2v2h-2v-2zm-8 4h2v2h-2v-2zm4-4h2v2h-2v-2zM4 3h8a1 1 0 011 1v8a1 1 0 01-1 1H4a1 1 0 01-1-1V4a1 1 0 011-1zm1 2v6h6V5H5zm2 2h2v2H7V7zm9-4h4a1 1 0 011 1v4a1 1 0 01-1 1h-4a1 1 0 01-1-1V4a1 1 0 011-1zm0 12h4a1 1 0 011 1v4a1 1 0 01-1 1h-4a1 1 0 01-1-1v-4a1 1 0 011-1zm1 2v2h2v-2h-2zM4 15h4a1 1 0 011 1v4a1 1 0 01-1 1H4a1 1 0 01-1-1v-4a1 1 0 011-1zm1 2v2h2v-2H5z" fill-rule="evenodd" fill-opacity=".9"/></svg>