<svg width="24" height="24" xmlns="http://www.w3.org/2000/svg"><path d="M12 22C6.477 22 2 17.523 2 12S6.477 2 12 2s10 4.477 10 10-4.477 10-10 10zm.308-5.192l.849.849A7.975 7.975 0 0015.5 12c0-2.21-.895-4.21-2.343-5.657l-.849.849A6.774 6.774 0 0114.3 12c0 1.83-.724 3.54-1.992 4.808zm-1.98-1.98l.849.849A5.184 5.184 0 0012.7 12a5.184 5.184 0 00-1.523-3.677l-.849.849A3.983 3.983 0 0111.5 12a3.983 3.983 0 01-1.172 2.828zm-1.13-1.13A2.392 2.392 0 009.9 12c0-.663-.269-1.263-.703-1.697L7.5 12l1.697 1.697z" fill-rule="evenodd" fill-opacity=".9"/></svg>